<svg id="Vrstva_1" data-name="Vrstva 1" xmlns="http://www.w3.org/2000/svg" viewBox="0 0 287.13 40.9"><defs><style>.cls-1{fill:none;stroke:#676767;stroke-miterlimit:10;stroke-width:2.95px;}.cls-2{fill:#343434;}.cls-3{fill:#756457;}.cls-4{fill:#988574;}</style></defs><polygon class="cls-1" points="10.44 3.59 1.47 1.8 1.47 38.96 10.44 37.67 10.44 25.75 21.2 17.94 10.44 16.15 10.44 3.59"/><polygon class="cls-1" points="31.96 3.59 31.96 16.15 21.2 17.94 31.96 25.75 31.96 37.67 40.93 38.96 40.93 1.8 31.96 3.59"/><path class="cls-2" d="M62.31,32.87H56.2V31.38H71.07v1.49H64.94V45H62.31Z" transform="translate(-5.7 -4.29)"/><path class="cls-2" d="M79.65,31.56a40.08,40.08,0,0,1,5-.28c2.77,0,4.56.34,5.81,1.11A3,3,0,0,1,92,35c0,1.79-1.67,3-3.78,3.47v.06a3.89,3.89,0,0,1,3,2.74A16.54,16.54,0,0,0,92.74,45H90.06a13.43,13.43,0,0,1-1.35-3.25c-.59-1.87-1.66-2.58-4-2.64H82.25V45h-2.6Zm2.6,6.19H84.9c2.77,0,4.53-1,4.53-2.58,0-1.75-1.88-2.52-4.62-2.54a15.72,15.72,0,0,0-2.56.16Z" transform="translate(-5.7 -4.29)"/><path class="cls-2" d="M104.63,31.38v8.05c0,3,2,4.33,4.67,4.33,3,0,4.89-1.33,4.89-4.33v-8h2.62V39.3c0,4.18-3.24,5.89-7.59,5.89-4.12,0-7.22-1.59-7.22-5.8v-8Z" transform="translate(-5.7 -4.29)"/><path class="cls-2" d="M130.25,31.38v5.69H140V31.38h2.62V45H140V38.6h-9.72V45h-2.59V31.38Z" transform="translate(-5.7 -4.29)"/><path class="cls-2" d="M153.43,31.38H156V43.5h8.58V45H153.43Z" transform="translate(-5.7 -4.29)"/><path class="cls-2" d="M177.09,40.69,175,45h-2.68l6.82-13.59h3.13L189.13,45h-2.77l-2.14-4.28Zm6.59-1.37-2-3.91a26.51,26.51,0,0,1-1-2.47h-.06c-.3.8-.63,1.63-1,2.45l-2,3.93Zm1.43-11-3.78,2.36h-2.15L182,28.3Z" transform="translate(-5.7 -4.29)"/><path class="cls-2" d="M198.43,31.56a40,40,0,0,1,5-.28c2.77,0,4.56.34,5.81,1.11A3,3,0,0,1,210.8,35c0,1.79-1.67,3-3.79,3.47v.06a3.87,3.87,0,0,1,3,2.74A17,17,0,0,0,211.51,45h-2.68a13.56,13.56,0,0,1-1.34-3.25c-.6-1.87-1.67-2.58-4-2.64H201V45h-2.59Zm4.68-1L200,28.3h2.17l1.91,1.41h.06L206,28.3h2.14l-3.06,2.3ZM201,37.75h2.65c2.78,0,4.53-1,4.53-2.58,0-1.75-1.87-2.52-4.62-2.54a15.72,15.72,0,0,0-2.56.16Z" transform="translate(-5.7 -4.29)"/><path class="cls-2" d="M220.45,42.83a12.69,12.69,0,0,0,4.65.89c2.65,0,4.2-.95,4.2-2.32s-1.07-2-3.78-2.7c-3.28-.79-5.31-1.94-5.31-3.85,0-2.12,2.59-3.69,6.5-3.69a12.66,12.66,0,0,1,4.44.67l-.72,1.43a11,11,0,0,0-3.81-.65c-2.74,0-3.79,1.11-3.79,2,0,1.27,1.23,1.89,4,2.62,3.39.88,5.12,2,5.12,4s-2.29,3.91-7,3.91a14.34,14.34,0,0,1-5.13-.87Z" transform="translate(-5.7 -4.29)"/><path class="cls-2" d="M245.66,32.87h-6.11V31.38h14.87v1.49h-6.14V45h-2.62Z" transform="translate(-5.7 -4.29)"/><path class="cls-2" d="M268.61,45l-6.56-13.59h2.8L268,38.07a48.84,48.84,0,0,1,2.14,5.08h.06a47.16,47.16,0,0,1,2.3-5l3.4-6.72h2.77L271.47,45Z" transform="translate(-5.7 -4.29)"/><path class="cls-2" d="M292.83,28.3,289,30.66H286.9l2.74-2.36Zm-3.07,3.08V45h-2.59V31.38Z" transform="translate(-5.7 -4.29)"/><path class="cls-2" d="M58.89,4.92v5.85H69V4.92h2.72v14H69V12.35H58.89V18.9H56.2v-14Z" transform="translate(-5.7 -4.29)"/><path class="cls-2" d="M113.07,4.81h2.68v9.35c0,3.71-2.71,4.86-6.3,4.86a13,13,0,0,1-2.87-.33l.41-1.48a8.91,8.91,0,0,0,2.25.27c2.41,0,3.83-.72,3.83-3.46Z" transform="translate(-5.7 -4.29)"/><path class="cls-2" d="M126.72,4.92h2.69V17.39h8.89V18.9H126.72Z" transform="translate(-5.7 -4.29)"/><path class="cls-2" d="M158.56,12.35h-8.09v5h9V18.9h-11.7v-14H159V6.44h-8.56v4.42h8.09Z" transform="translate(-5.7 -4.29)"/><path class="cls-2" d="M169.47,4.92h2.69v6.75h.09c.55-.54,1.11-1,1.64-1.5l6.35-5.25h3.34l-7.53,5.94,8.12,8H181L174.13,12l-2,1.53V18.9h-2.69Z" transform="translate(-5.7 -4.29)"/><polygon class="cls-3" points="85.02 0.64 88.78 7.63 92.54 14.62 85.02 14.62 77.5 14.62 81.26 7.63 85.02 0.64"/><rect class="cls-4" x="17.77" y="26.68" width="2.29" height="2.29"/><rect class="cls-4" x="22.35" y="26.68" width="2.29" height="2.29"/><rect class="cls-4" x="22.35" y="31.26" width="2.29" height="2.29"/><rect class="cls-4" x="17.77" y="31.26" width="2.29" height="2.29"/></svg>