<svg id="Vrstva_1" data-name="Vrstva 1" xmlns="http://www.w3.org/2000/svg" viewBox="0 0 972.23 481.98"><defs><style>.cls-1{fill:#343434;}.cls-2{fill:#736356;}.cls-3{fill:none;stroke:#666;stroke-miterlimit:10;stroke-width:20.17px;}.cls-4{fill:#988574;}</style></defs><path class="cls-1" d="M267.71,381v23.25h40V381h10.8v55.57h-10.8V410.53h-40v26.06H257V381Z" transform="translate(-13.88 -59.87)"/><path class="cls-1" d="M483.09,380.56h10.67v37.19c0,14.75-10.79,19.29-25,19.29a50.71,50.71,0,0,1-11.41-1.32l1.6-5.86a36.07,36.07,0,0,0,9,1.08c9.57,0,15.22-2.89,15.22-13.77Z" transform="translate(-13.88 -59.87)"/><path class="cls-1" d="M537.38,381h10.67v49.55H583.4v6h-46Z" transform="translate(-13.88 -59.87)"/><path class="cls-1" d="M664,410.53H631.79v20h35.84v6H621.12V381h44.67v6h-34V404.6H664Z" transform="translate(-13.88 -59.87)"/><path class="cls-1" d="M707.32,381H718v26.8h.37c2.21-2.15,4.42-4.13,6.51-5.94L750.15,381H763.4L733.45,404.6l32.29,32H753.09l-27.24-27.3L718,415.4v21.19H707.32Z" transform="translate(-13.88 -59.87)"/><polygon class="cls-2" points="380.35 321.14 395.3 348.93 410.24 376.71 380.35 376.71 350.46 376.71 365.4 348.93 380.35 321.14"/><polygon class="cls-3" points="423.82 24.58 362.43 12.3 362.43 266.71 423.82 257.89 423.82 176.27 497.5 122.82 423.82 110.54 423.82 24.58"/><polygon class="cls-3" points="571.18 24.58 571.18 110.54 497.5 122.82 571.18 176.27 571.18 257.89 632.58 266.71 632.58 12.3 571.18 24.58"/><rect class="cls-4" x="473.97" y="182.46" width="15.69" height="15.69"/><rect class="cls-4" x="505.35" y="182.46" width="15.69" height="15.69"/><rect class="cls-4" x="505.35" y="213.84" width="15.69" height="15.69"/><rect class="cls-4" x="473.97" y="213.84" width="15.69" height="15.69"/><path class="cls-1" d="M39,491.25H13.88v-6.13H75v6.13H49.76v49.69H39Z" transform="translate(-13.88 -59.87)"/><path class="cls-1" d="M110.24,485.87a162,162,0,0,1,20.45-1.16c11.38,0,18.73,1.4,23.87,4.55,4.16,2.49,6.49,6.3,6.49,10.6,0,7.37-6.86,12.26-15.55,14.25v.25c6.37,1.49,10.16,5.46,12.12,11.26,2.7,7.79,4.65,13.17,6.37,15.32H153c-1.35-1.57-3.18-6.37-5.51-13.33-2.45-7.7-6.86-10.6-16.53-10.85h-10v24.18H110.24Zm10.65,25.42h10.9c11.38,0,18.61-4.22,18.61-10.6,0-7.21-7.72-10.35-19-10.44a64,64,0,0,0-10.53.67Z" transform="translate(-13.88 -59.87)"/><path class="cls-1" d="M212.84,485.12v33c0,12.5,8.2,17.8,19.22,17.8,12.24,0,20.08-5.46,20.08-17.8v-33h10.77v32.55c0,17.14-13.34,24.18-31.22,24.18-16.89,0-29.63-6.54-29.63-23.85V485.12Z" transform="translate(-13.88 -59.87)"/><path class="cls-1" d="M318.13,485.12v23.36H358V485.12h10.78v55.82H358V514.77H318.13v26.17H307.48V485.12Z" transform="translate(-13.88 -59.87)"/><path class="cls-1" d="M413.38,485.12H424V534.9h35.26v6H413.38Z" transform="translate(-13.88 -59.87)"/><path class="cls-1" d="M510.59,523.38,502,540.94H491l28-55.82h12.85l28.16,55.82H548.67l-8.82-17.56Zm27.06-5.63-8.08-16.07a100.86,100.86,0,0,1-4.29-10.18H525c-1.23,3.31-2.57,6.71-4.17,10.1l-8.08,16.15Zm5.87-45.3L528,482.14h-8.82l11.39-9.69Z" transform="translate(-13.88 -59.87)"/><path class="cls-1" d="M598.25,485.87a162,162,0,0,1,20.45-1.16c11.38,0,18.73,1.4,23.87,4.55,4.17,2.49,6.49,6.3,6.49,10.6,0,7.37-6.85,12.26-15.55,14.25v.25c6.37,1.49,10.17,5.46,12.12,11.26,2.7,7.79,4.66,13.17,6.37,15.32H641c-1.35-1.57-3.18-6.37-5.51-13.33-2.45-7.7-6.85-10.6-16.53-10.85h-10v24.18H598.25Zm19.22-4-12.73-9.44h8.94l7.83,5.8h.25l7.71-5.8h8.82l-12.61,9.44Zm-8.57,29.4h10.9c11.39,0,18.61-4.22,18.61-10.6,0-7.21-7.71-10.35-19-10.44a64.07,64.07,0,0,0-10.53.67Z" transform="translate(-13.88 -59.87)"/><path class="cls-1" d="M688.73,532.16a51.79,51.79,0,0,0,19.1,3.65c10.9,0,17.26-3.89,17.26-9.53,0-5.21-4.41-8.2-15.55-11.1-13.47-3.22-21.79-7.95-21.79-15.81,0-8.7,10.65-15.16,26.69-15.16,8.45,0,14.57,1.32,18.24,2.73l-2.94,5.88a45.66,45.66,0,0,0-15.67-2.65c-11.26,0-15.55,4.56-15.55,8.37,0,5.21,5,7.78,16.41,10.76,14,3.65,21.06,8.2,21.06,16.4,0,8.62-9.43,16.07-28.9,16.07-8,0-16.65-1.57-21.06-3.56Z" transform="translate(-13.88 -59.87)"/><path class="cls-1" d="M792.31,491.25h-25.1v-6.13H828.3v6.13H803.08v49.69H792.31Z" transform="translate(-13.88 -59.87)"/><path class="cls-1" d="M886.58,540.94l-26.94-55.82h11.51L884,512.62a198.91,198.91,0,0,1,8.81,20.87h.25a195.55,195.55,0,0,1,9.42-20.79l14-27.58h11.39l-29.51,55.82Z" transform="translate(-13.88 -59.87)"/><path class="cls-1" d="M986.12,472.45l-15.68,9.69h-8.69L973,472.45ZM973.5,485.12v55.82H962.85V485.12Z" transform="translate(-13.88 -59.87)"/></svg>